<svg xmlns="http://www.w3.org/2000/svg" viewBox="0 0 60 60" role="img" aria-hidden="true">
  <defs>
    <linearGradient id="iosPhoneGrad" x1="30" y1="4" x2="30" y2="56" gradientUnits="userSpaceOnUse">
      <stop offset="0" stop-color="#63E879"/>
      <stop offset="1" stop-color="#34C759"/>
    </linearGradient>
  </defs>
  <rect width="60" height="60" rx="13.5" fill="url(#iosPhoneGrad)"/>
  <path fill="#fff" d="M36.2 34.8c-1.3-.65-2.5-1.1-3.6-1.5-1-.3-2 .2-2.5 1l-1 1.9c-2.3-1.2-4.2-3.1-5.4-5.4l1.9-1c.8-.45 1.3-1.45 1-2.35-.35-1.1-.8-2.3-1.45-3.55-.35-.85-1.2-1.4-2.1-1.4h-3.4c-1.2 0-2.2 1-2.05 2.25.85 5.15 4.45 9.65 9.6 10.5 1.2.2 2.2-.85 2.2-2.05v-3.4c0-.95-.55-1.75-1.4-2.1z"/>
</svg>
