<svg xmlns="http://www.w3.org/2000/svg" viewBox="0 0 60 60" role="img" aria-hidden="true">
  <rect width="60" height="60" rx="13.5" fill="#25D366"/>
  <path fill="#fff" d="M30 11.5c-10.217 0-18.5 8.283-18.5 18.5 0 3.266.848 6.338 2.338 9.002L12.5 48.5l9.74-2.55A18.43 18.43 0 0 0 30 48.5c10.217 0 18.5-8.283 18.5-18.5S40.217 11.5 30 11.5zm0 33.68a15.2 15.2 0 0 1-7.73-2.1l-.555-.33-5.77 1.51 1.54-5.63-.36-.57A15.18 15.18 0 0 1 14.82 30c0-8.385 6.815-15.2 15.2-15.2S45.22 21.615 45.22 30 38.405 45.18 30 45.18z"/>
  <path fill="#fff" d="M38.2 33.4c-.24-.12-1.42-.7-1.64-.78-.22-.08-.38-.12-.54.12-.16.24-.62.78-.76.94-.14.16-.28.18-.52.06-.24-.12-1.02-.38-1.94-1.2-.72-.64-1.2-1.44-1.34-1.68-.14-.24-.02-.36.1-.48.1-.1.24-.28.36-.42.12-.14.16-.24.24-.4.08-.16.04-.3-.02-.42-.06-.12-.54-1.3-.74-1.78-.2-.48-.4-.42-.54-.42h-.46c-.16 0-.42.06-.64.3-.22.24-.84.82-.84 2s.86 2.32.98 2.48c.12.16 1.7 2.6 4.12 3.64.58.25 1.03.4 1.38.52.58.18 1.1.16 1.52.1.46-.07 1.42-.58 1.62-1.14.2-.56.2-1.04.14-1.14-.06-.1-.22-.16-.46-.28z"/>
</svg>
